M48
; DRILL file KiCad 10.0.0 date 2026-07-21T16:33:18
; FORMAT={-:-/ absolute / metric / decimal}
; #@! TF.CreationDate,2026-07-21T16:33:18-05:00
; #@! TF.GenerationSoftware,Kicad,Pcbnew,10.0.0
; #@! TF.FileFunction,Plated,1,2,PTH
FMAT,2
METRIC
; #@! TA.AperFunction,Plated,PTH,ComponentDrill
T1C0.800
; #@! TA.AperFunction,Plated,PTH,ComponentDrill
T2C1.000
; #@! TA.AperFunction,Plated,PTH,ComponentDrill
T3C1.500
%
G90
G05
T1
X112.75Y-90.75
X114.75Y-90.75
X115.0Y-100.75
X115.0Y-110.91
T2
X112.46Y-32.28
X112.46Y-34.82
X112.46Y-37.36
X112.46Y-39.9
X112.46Y-42.44
X112.46Y-44.98
X112.46Y-47.52
X112.46Y-50.06
X112.46Y-52.6
X112.46Y-55.14
X112.46Y-57.68
X112.46Y-60.22
X112.46Y-62.76
X112.46Y-65.3
X112.46Y-67.84
X112.46Y-70.38
X112.46Y-72.92
X112.46Y-75.46
X112.46Y-78.0
X112.46Y-80.54
X115.0Y-32.28
X115.0Y-34.82
X115.0Y-37.36
X115.0Y-39.9
X115.0Y-42.44
X115.0Y-44.98
X115.0Y-47.52
X115.0Y-50.06
X115.0Y-52.6
X115.0Y-55.14
X115.0Y-57.68
X115.0Y-60.22
X115.0Y-62.76
X115.0Y-65.3
X115.0Y-67.84
X115.0Y-70.38
X115.0Y-72.92
X115.0Y-75.46
X115.0Y-78.0
X115.0Y-80.54
T3
X123.15Y-37.54
X123.15Y-56.54
X123.15Y-75.54
X123.15Y-94.54
X123.15Y-113.54
X129.5Y-35.0
X129.5Y-54.0
X129.5Y-73.0
X129.5Y-92.0
X129.5Y-111.0
X142.15Y-37.54
X142.15Y-56.54
X142.15Y-75.54
X142.15Y-94.54
X142.15Y-113.54
X148.5Y-35.0
X148.5Y-54.0
X148.5Y-73.0
X148.5Y-92.0
X148.5Y-111.0
M30
