M48
; DRILL file KiCad 10.0.0 date 2026-07-21T16:33:18
; FORMAT={-:-/ absolute / metric / decimal}
; #@! TF.CreationDate,2026-07-21T16:33:18-05:00
; #@! TF.GenerationSoftware,Kicad,Pcbnew,10.0.0
; #@! TF.FileFunction,NonPlated,1,2,NPTH
FMAT,2
METRIC
; #@! TA.AperFunction,NonPlated,NPTH,ComponentDrill
T1C1.700
; #@! TA.AperFunction,NonPlated,NPTH,ComponentDrill
T2C3.200
; #@! TA.AperFunction,NonPlated,NPTH,ComponentDrill
T3C4.000
%
G90
G05
T1
X121.88Y-40.08
X121.88Y-59.08
X121.88Y-78.08
X121.88Y-97.08
X121.88Y-116.08
X132.04Y-40.08
X132.04Y-59.08
X132.04Y-78.08
X132.04Y-97.08
X132.04Y-116.08
X140.88Y-40.08
X140.88Y-59.08
X140.88Y-78.08
X140.88Y-97.08
X140.88Y-116.08
X151.04Y-40.08
X151.04Y-59.08
X151.04Y-78.08
X151.04Y-97.08
X151.04Y-116.08
T2
X106.5Y-34.0
X106.5Y-122.5
X159.0Y-34.0
X159.0Y-122.5
T3
X126.96Y-40.08
X126.96Y-59.08
X126.96Y-78.08
X126.96Y-97.08
X126.96Y-116.08
X145.96Y-40.08
X145.96Y-59.08
X145.96Y-78.08
X145.96Y-97.08
X145.96Y-116.08
M30
