M48
; DRILL file KiCad 10.0.0 date 2026-07-21T15:54:25
; FORMAT={-:-/ absolute / metric / decimal}
; #@! TF.CreationDate,2026-07-21T15:54:25-05:00
; #@! TF.GenerationSoftware,Kicad,Pcbnew,10.0.0
; #@! TF.FileFunction,NonPlated,1,2,NPTH
FMAT,2
METRIC
; #@! TA.AperFunction,NonPlated,NPTH,ComponentDrill
T1C1.702
; #@! TA.AperFunction,NonPlated,NPTH,ComponentDrill
T2C3.000
; #@! TA.AperFunction,NonPlated,NPTH,ComponentDrill
T3C3.200
; #@! TA.AperFunction,NonPlated,NPTH,ComponentDrill
T4C3.988
%
G90
G05
T1
X121.92Y-40.0
X121.92Y-59.0
X121.92Y-78.0
X121.92Y-97.0
X121.92Y-116.0
X132.08Y-40.0
X132.08Y-59.0
X132.08Y-78.0
X132.08Y-97.0
X132.08Y-116.0
X140.92Y-40.0
X140.92Y-59.0
X140.92Y-78.0
X140.92Y-97.0
X140.92Y-116.0
X151.08Y-40.0
X151.08Y-59.0
X151.08Y-78.0
X151.08Y-97.0
X151.08Y-116.0
T2
X124.46Y-34.92
X124.46Y-53.92
X124.46Y-72.92
X124.46Y-91.92
X124.46Y-110.92
X130.81Y-37.46
X130.81Y-56.46
X130.81Y-75.46
X130.81Y-94.46
X130.81Y-113.46
X143.46Y-34.92
X143.46Y-53.92
X143.46Y-72.92
X143.46Y-91.92
X143.46Y-110.92
X149.81Y-37.46
X149.81Y-56.46
X149.81Y-75.46
X149.81Y-94.46
X149.81Y-113.46
T3
X106.5Y-34.0
X106.5Y-122.5
X159.0Y-34.0
X159.0Y-122.5
T4
X127.0Y-40.0
X127.0Y-59.0
X127.0Y-78.0
X127.0Y-97.0
X127.0Y-116.0
X146.0Y-40.0
X146.0Y-59.0
X146.0Y-78.0
X146.0Y-97.0
X146.0Y-116.0
M30
