%TF.GenerationSoftware,KiCad,Pcbnew,10.0.0*%
%TF.CreationDate,2026-07-21T16:33:13-05:00*%
%TF.ProjectId,10KeyMacropad,31304b65-794d-4616-9372-6f7061642e6b,rev?*%
%TF.SameCoordinates,Original*%
%TF.FileFunction,Copper,L1,Top*%
%TF.FilePolarity,Positive*%
%FSLAX46Y46*%
G04 Gerber Fmt 4.6, Leading zero omitted, Abs format (unit mm)*
G04 Created by KiCad (PCBNEW 10.0.0) date 2026-07-21 16:33:13*
%MOMM*%
%LPD*%
G01*
G04 APERTURE LIST*
G04 Aperture macros list*
%AMRoundRect*
0 Rectangle with rounded corners*
0 $1 Rounding radius*
0 $2 $3 $4 $5 $6 $7 $8 $9 X,Y pos of 4 corners*
0 Add a 4 corners polygon primitive as box body*
4,1,4,$2,$3,$4,$5,$6,$7,$8,$9,$2,$3,0*
0 Add four circle primitives for the rounded corners*
1,1,$1+$1,$2,$3*
1,1,$1+$1,$4,$5*
1,1,$1+$1,$6,$7*
1,1,$1+$1,$8,$9*
0 Add four rect primitives between the rounded corners*
20,1,$1+$1,$2,$3,$4,$5,0*
20,1,$1+$1,$4,$5,$6,$7,0*
20,1,$1+$1,$6,$7,$8,$9,0*
20,1,$1+$1,$8,$9,$2,$3,0*%
G04 Aperture macros list end*
%TA.AperFunction,ComponentPad*%
%ADD10C,2.200000*%
%TD*%
%TA.AperFunction,SMDPad,CuDef*%
%ADD11RoundRect,0.090000X-0.660000X-0.360000X0.660000X-0.360000X0.660000X0.360000X-0.660000X0.360000X0*%
%TD*%
%TA.AperFunction,ComponentPad*%
%ADD12R,1.700000X1.700000*%
%TD*%
%TA.AperFunction,ComponentPad*%
%ADD13C,1.700000*%
%TD*%
%TA.AperFunction,ComponentPad*%
%ADD14RoundRect,0.250000X0.550000X0.550000X-0.550000X0.550000X-0.550000X-0.550000X0.550000X-0.550000X0*%
%TD*%
%TA.AperFunction,ComponentPad*%
%ADD15C,1.600000*%
%TD*%
%TA.AperFunction,Conductor*%
%ADD16C,0.200000*%
%TD*%
G04 APERTURE END LIST*
D10*
%TO.P,SW6,1,1_1*%
%TO.N,GND*%
X148500000Y-35000000D03*
%TO.P,SW6,2,2_2*%
%TO.N,Net-(A1-GPIO6)*%
X142150000Y-37540000D03*
%TD*%
%TO.P,SW1,1,1_1*%
%TO.N,GND*%
X129500000Y-35000000D03*
%TO.P,SW1,2,2_2*%
%TO.N,Net-(A1-GPIO1)*%
X123150000Y-37540000D03*
%TD*%
%TO.P,SW2,1,1_1*%
%TO.N,GND*%
X129500000Y-54000000D03*
%TO.P,SW2,2,2_2*%
%TO.N,Net-(A1-GPIO2)*%
X123150000Y-56540000D03*
%TD*%
%TO.P,SW3,1,1_1*%
%TO.N,GND*%
X129500000Y-73000000D03*
%TO.P,SW3,2,2_2*%
%TO.N,Net-(A1-GPIO3)*%
X123150000Y-75540000D03*
%TD*%
%TO.P,SW4,1,1_1*%
%TO.N,GND*%
X129500000Y-92000000D03*
%TO.P,SW4,2,2_2*%
%TO.N,Net-(A1-GPIO4)*%
X123150000Y-94540000D03*
%TD*%
%TO.P,SW5,1,1_1*%
%TO.N,GND*%
X129500000Y-111000000D03*
%TO.P,SW5,2,2_2*%
%TO.N,Net-(A1-GPIO5)*%
X123150000Y-113540000D03*
%TD*%
%TO.P,SW10,1,1_1*%
%TO.N,GND*%
X148500000Y-111000000D03*
%TO.P,SW10,2,2_2*%
%TO.N,Net-(A1-GPIO10)*%
X142150000Y-113540000D03*
%TD*%
%TO.P,SW9,1,1_1*%
%TO.N,GND*%
X148500000Y-92000000D03*
%TO.P,SW9,2,2_2*%
%TO.N,Net-(A1-GPIO9)*%
X142150000Y-94540000D03*
%TD*%
%TO.P,SW8,1,1_1*%
%TO.N,GND*%
X148500000Y-73000000D03*
%TO.P,SW8,2,2_2*%
%TO.N,Net-(A1-GPIO8)*%
X142150000Y-75540000D03*
%TD*%
%TO.P,SW7,1,1_1*%
%TO.N,GND*%
X148500000Y-54000000D03*
%TO.P,SW7,2,2_2*%
%TO.N,Net-(A1-GPIO7)*%
X142150000Y-56540000D03*
%TD*%
D11*
%TO.P,D1,1,VDD_1*%
%TO.N,VDD*%
X111300000Y-121100000D03*
%TO.P,D1,2,DOUT_2*%
%TO.N,unconnected-(D1-DOUT-Pad2)*%
X111300000Y-124400000D03*
%TO.P,D1,3,VSS_3*%
%TO.N,GND*%
X116200000Y-124400000D03*
%TO.P,D1,4,DIN_4*%
%TO.N,Net-(D1-DIN)*%
X116200000Y-121100000D03*
%TD*%
D12*
%TO.P,A1,1,GPIO0_1*%
%TO.N,unconnected-(A1-GPIO0-Pad1)*%
X115000000Y-32280000D03*
D13*
%TO.P,A1,2,GPIO1_2*%
%TO.N,Net-(A1-GPIO1)*%
X112460000Y-32280000D03*
%TO.P,A1,3,GND_3*%
%TO.N,GND*%
X115000000Y-34820000D03*
%TO.P,A1,4,GPIO2_4*%
%TO.N,Net-(A1-GPIO2)*%
X112460000Y-34820000D03*
%TO.P,A1,5,GPIO3_5*%
%TO.N,Net-(A1-GPIO3)*%
X115000000Y-37360000D03*
%TO.P,A1,6,GPIO4_6*%
%TO.N,Net-(A1-GPIO4)*%
X112460000Y-37360000D03*
%TO.P,A1,7,GPIO5_7*%
%TO.N,Net-(A1-GPIO5)*%
X115000000Y-39900000D03*
%TO.P,A1,8,GND_8*%
%TO.N,GND*%
X112460000Y-39900000D03*
%TO.P,A1,9,GPIO6_9*%
%TO.N,Net-(A1-GPIO6)*%
X115000000Y-42440000D03*
%TO.P,A1,10,GPIO7_10*%
%TO.N,Net-(A1-GPIO7)*%
X112460000Y-42440000D03*
%TO.P,A1,11,GPIO8_11*%
%TO.N,Net-(A1-GPIO8)*%
X115000000Y-44980000D03*
%TO.P,A1,12,GPIO9_12*%
%TO.N,Net-(A1-GPIO9)*%
X112460000Y-44980000D03*
%TO.P,A1,13,GND_13*%
%TO.N,GND*%
X115000000Y-47520000D03*
%TO.P,A1,14,GPIO10_14*%
%TO.N,Net-(A1-GPIO10)*%
X112460000Y-47520000D03*
%TO.P,A1,15,GPIO11_15*%
%TO.N,unconnected-(A1-GPIO11-Pad15)*%
X115000000Y-50060000D03*
%TO.P,A1,16,GPIO12_16*%
%TO.N,unconnected-(A1-GPIO12-Pad16)*%
X112460000Y-50060000D03*
%TO.P,A1,17,GPIO13_17*%
%TO.N,unconnected-(A1-GPIO13-Pad17)*%
X115000000Y-52600000D03*
%TO.P,A1,18,GND_18*%
%TO.N,GND*%
X112460000Y-52600000D03*
%TO.P,A1,19,GPIO14_19*%
%TO.N,Net-(A1-GPIO14)*%
X115000000Y-55140000D03*
%TO.P,A1,20,GPIO15_20*%
%TO.N,unconnected-(A1-GPIO15-Pad20)*%
X112460000Y-55140000D03*
%TO.P,A1,21,GPIO16_21*%
%TO.N,unconnected-(A1-GPIO16-Pad21)*%
X115000000Y-57680000D03*
%TO.P,A1,22,GPIO17_22*%
%TO.N,unconnected-(A1-GPIO17-Pad22)*%
X112460000Y-57680000D03*
%TO.P,A1,23,GND_23*%
%TO.N,GND*%
X115000000Y-60220000D03*
%TO.P,A1,24,GPIO18_24*%
%TO.N,unconnected-(A1-GPIO18-Pad24)*%
X112460000Y-60220000D03*
%TO.P,A1,25,GPIO19_25*%
%TO.N,unconnected-(A1-GPIO19-Pad25)*%
X115000000Y-62760000D03*
%TO.P,A1,26,GPIO20_26*%
%TO.N,unconnected-(A1-GPIO20-Pad26)*%
X112460000Y-62760000D03*
%TO.P,A1,27,GPIO21_27*%
%TO.N,unconnected-(A1-GPIO21-Pad27)*%
X115000000Y-65300000D03*
%TO.P,A1,28,GND_28*%
%TO.N,GND*%
X112460000Y-65300000D03*
%TO.P,A1,29,GPIO22_29*%
%TO.N,unconnected-(A1-GPIO22-Pad29)*%
X115000000Y-67840000D03*
%TO.P,A1,30,RUN_30*%
%TO.N,unconnected-(A1-RUN-Pad30)*%
X112460000Y-67840000D03*
%TO.P,A1,31,GPIO26_ADC0_31*%
%TO.N,unconnected-(A1-GPIO26_ADC0-Pad31)*%
X115000000Y-70380000D03*
%TO.P,A1,32,GPIO27_ADC1_32*%
%TO.N,unconnected-(A1-GPIO27_ADC1-Pad32)*%
X112460000Y-70380000D03*
%TO.P,A1,33,AGND_33*%
%TO.N,unconnected-(A1-AGND-Pad33)*%
X115000000Y-72920000D03*
%TO.P,A1,34,GPIO28_ADC2_34*%
%TO.N,unconnected-(A1-GPIO28_ADC2-Pad34)*%
X112460000Y-72920000D03*
%TO.P,A1,35,ADC_VREF_35*%
%TO.N,unconnected-(A1-ADC_VREF-Pad35)*%
X115000000Y-75460000D03*
%TO.P,A1,36,3V3_36*%
%TO.N,VDD*%
X112460000Y-75460000D03*
%TO.P,A1,37,3V3_EN_37*%
%TO.N,unconnected-(A1-3V3_EN-Pad37)*%
X115000000Y-78000000D03*
%TO.P,A1,38,GND_38*%
%TO.N,GND*%
X112460000Y-78000000D03*
%TO.P,A1,39,VSYS_39*%
%TO.N,unconnected-(A1-VSYS-Pad39)*%
X115000000Y-80540000D03*
%TO.P,A1,40,VBUS_40*%
%TO.N,unconnected-(A1-VBUS-Pad40)*%
X112460000Y-80540000D03*
%TD*%
D14*
%TO.P,C1,1*%
%TO.N,VDD*%
X114750000Y-90750000D03*
D15*
%TO.P,C1,2*%
%TO.N,GND*%
X112750000Y-90750000D03*
%TD*%
%TO.P,R1,1*%
%TO.N,Net-(A1-GPIO14)*%
X115000000Y-100750000D03*
%TO.P,R1,2*%
%TO.N,Net-(D1-DIN)*%
X115000000Y-110910000D03*
%TD*%
%TO.N,GND*%
D16*
X153085000Y-118000000D02*
X153085000Y-114000000D01*
X139625000Y-119000000D02*
X152085000Y-119000000D01*
X134085000Y-113460000D02*
X139625000Y-119000000D01*
X152085000Y-119000000D02*
X153085000Y-118000000D01*
X153085000Y-118000000D02*
X153085000Y-120915000D01*
X147657056Y-73000000D02*
X148500000Y-73000000D01*
X138257056Y-82400000D02*
X147657056Y-73000000D01*
X111800000Y-82400000D02*
X138257056Y-82400000D01*
X111310000Y-81910000D02*
X111800000Y-82400000D01*
X111310000Y-79150000D02*
X111310000Y-81910000D01*
X112460000Y-78000000D02*
X111310000Y-79150000D01*
X150960000Y-37460000D02*
X153085000Y-37460000D01*
X148500000Y-35000000D02*
X150960000Y-37460000D01*
%TO.N,Net-(A1-GPIO6)*%
X140158000Y-35548000D02*
X140158000Y-34920000D01*
X142150000Y-37540000D02*
X140158000Y-35548000D01*
%TO.N,Net-(A1-GPIO1)*%
X121452000Y-35842000D02*
X123150000Y-37540000D01*
X121158000Y-35842000D02*
X121452000Y-35842000D01*
%TO.N,GND*%
X134085000Y-37460000D02*
X134085000Y-56460000D01*
X132235000Y-35610000D02*
X134085000Y-37460000D01*
X128663705Y-35610000D02*
X132235000Y-35610000D01*
X126543705Y-37730000D02*
X128663705Y-35610000D01*
X125986598Y-37730000D02*
X126543705Y-37730000D01*
X125216598Y-38500000D02*
X125986598Y-37730000D01*
X122570101Y-38940000D02*
X123729899Y-38940000D01*
X123729899Y-38940000D02*
X124169899Y-38500000D01*
X122130101Y-38500000D02*
X122570101Y-38940000D01*
X124169899Y-38500000D02*
X125216598Y-38500000D01*
X116950000Y-36770000D02*
X120270000Y-36770000D01*
X120270000Y-36770000D02*
X122000000Y-38500000D01*
X122000000Y-38500000D02*
X122130101Y-38500000D01*
X115000000Y-34820000D02*
X116950000Y-36770000D01*
%TO.N,Net-(A1-GPIO2)*%
X113610000Y-35970000D02*
X112460000Y-34820000D01*
X121158000Y-41891654D02*
X115236346Y-35970000D01*
X115236346Y-35970000D02*
X113610000Y-35970000D01*
X123150000Y-56540000D02*
X121158000Y-54548000D01*
X121158000Y-54548000D02*
X121158000Y-41891654D01*
%TO.N,GND*%
X131960000Y-56460000D02*
X129500000Y-54000000D01*
X134085000Y-56460000D02*
X131960000Y-56460000D01*
X134085000Y-75460000D02*
X131960000Y-75460000D01*
X131960000Y-75460000D02*
X129500000Y-73000000D01*
%TO.N,Net-(A1-GPIO3)*%
X121158000Y-73548000D02*
X123150000Y-75540000D01*
X121158000Y-72920000D02*
X121158000Y-73548000D01*
%TO.N,Net-(A1-GPIO7)*%
X113850000Y-43830000D02*
X112460000Y-42440000D01*
X116830000Y-43830000D02*
X113850000Y-43830000D01*
X118000000Y-72599648D02*
X118000000Y-45000000D01*
X122377056Y-76880000D02*
X122280352Y-76880000D01*
X122497056Y-77000000D02*
X122377056Y-76880000D01*
X122996295Y-77000000D02*
X122497056Y-77000000D01*
X118000000Y-45000000D02*
X116830000Y-43830000D01*
X124550000Y-76119899D02*
X123729899Y-76940000D01*
X126310000Y-73686295D02*
X124550000Y-75446295D01*
X124550000Y-75446295D02*
X124550000Y-76119899D01*
X122280352Y-76880000D02*
X118000000Y-72599648D01*
X126310000Y-67768000D02*
X126310000Y-73686295D01*
X137538000Y-56540000D02*
X126310000Y-67768000D01*
X123056295Y-76940000D02*
X122996295Y-77000000D01*
X142150000Y-56540000D02*
X137538000Y-56540000D01*
X123729899Y-76940000D02*
X123056295Y-76940000D01*
%TO.N,Net-(A1-GPIO4)*%
X117920000Y-91920000D02*
X115000000Y-89000000D01*
X107000000Y-86000000D02*
X107000000Y-42820000D01*
X107000000Y-42820000D02*
X112460000Y-37360000D01*
X122920000Y-91920000D02*
X117920000Y-91920000D01*
X123150000Y-92150000D02*
X122920000Y-91920000D01*
X123150000Y-94540000D02*
X123150000Y-92150000D01*
X115000000Y-89000000D02*
X110000000Y-89000000D01*
X110000000Y-89000000D02*
X107000000Y-86000000D01*
%TO.N,GND*%
X132000000Y-92000000D02*
X129500000Y-92000000D01*
X134085000Y-94085000D02*
X132000000Y-92000000D01*
X134085000Y-113460000D02*
X134085000Y-94085000D01*
%TO.N,Net-(A1-GPIO5)*%
X113610000Y-38510000D02*
X115000000Y-39900000D01*
X112223654Y-38510000D02*
X113610000Y-38510000D01*
X108000000Y-42733654D02*
X112223654Y-38510000D01*
X111000000Y-88000000D02*
X108000000Y-85000000D01*
X124000000Y-88000000D02*
X111000000Y-88000000D01*
X126310000Y-90310000D02*
X124000000Y-88000000D01*
X126310000Y-94375225D02*
X126310000Y-90310000D01*
X121158000Y-99527225D02*
X126310000Y-94375225D01*
X121158000Y-111548000D02*
X121158000Y-99527225D01*
X108000000Y-85000000D02*
X108000000Y-42733654D01*
X123150000Y-113540000D02*
X121158000Y-111548000D01*
%TO.N,GND*%
X134085000Y-113460000D02*
X131960000Y-113460000D01*
X131960000Y-113460000D02*
X129500000Y-111000000D01*
X153085000Y-114000000D02*
X151500000Y-114000000D01*
X151500000Y-114000000D02*
X148500000Y-111000000D01*
%TO.N,Net-(A1-GPIO10)*%
X110000000Y-49980000D02*
X112460000Y-47520000D01*
X138156295Y-84000000D02*
X111000000Y-84000000D01*
X145310000Y-91153705D02*
X138156295Y-84000000D01*
X145310000Y-94375225D02*
X145310000Y-91153705D01*
X110000000Y-83000000D02*
X110000000Y-49980000D01*
X140158000Y-111548000D02*
X140158000Y-99527225D01*
X142150000Y-113540000D02*
X140158000Y-111548000D01*
X140158000Y-99527225D02*
X145310000Y-94375225D01*
X111000000Y-84000000D02*
X110000000Y-83000000D01*
%TO.N,Net-(A1-GPIO9)*%
X140158000Y-92548000D02*
X142150000Y-94540000D01*
X140158000Y-91920000D02*
X140158000Y-92548000D01*
%TO.N,GND*%
X153085000Y-97000000D02*
X153085000Y-96585000D01*
X153085000Y-97000000D02*
X153085000Y-113460000D01*
X153085000Y-96585000D02*
X148500000Y-92000000D01*
%TO.N,Net-(A1-GPIO8)*%
X138460000Y-75540000D02*
X142150000Y-75540000D01*
X132000000Y-82000000D02*
X138460000Y-75540000D01*
%TO.N,GND*%
X151312500Y-54687500D02*
X149187500Y-54687500D01*
X151312500Y-54687500D02*
X148695000Y-52070000D01*
X149187500Y-54687500D02*
X148500000Y-54000000D01*
X153085000Y-113460000D02*
X153085000Y-114000000D01*
X138475000Y-71070000D02*
X134085000Y-75460000D01*
X153085000Y-75460000D02*
X148695000Y-71070000D01*
X113610000Y-44503654D02*
X113610000Y-46130000D01*
X113610000Y-46130000D02*
X115000000Y-47520000D01*
X115000000Y-47520000D02*
X113850000Y-48670000D01*
X111310000Y-41050000D02*
X111310000Y-43156346D01*
X113610000Y-64150000D02*
X112460000Y-65300000D01*
X149600000Y-124400000D02*
X116200000Y-124400000D01*
X148695000Y-71923329D02*
X148695000Y-71070000D01*
X113850000Y-51210000D02*
X112460000Y-52600000D01*
X153085000Y-94460000D02*
X153085000Y-97000000D01*
X148695000Y-52070000D02*
X138475000Y-52070000D01*
X111310000Y-43156346D02*
X111983654Y-43830000D01*
X113850000Y-48670000D02*
X113850000Y-51210000D01*
X111983654Y-43830000D02*
X112936346Y-43830000D01*
X112936346Y-43830000D02*
X113610000Y-44503654D01*
X153085000Y-56460000D02*
X153085000Y-75460000D01*
X153085000Y-75460000D02*
X153085000Y-94460000D01*
X148695000Y-71070000D02*
X138475000Y-71070000D01*
X113610000Y-76850000D02*
X112460000Y-78000000D01*
X112460000Y-39900000D02*
X111310000Y-41050000D01*
X113610000Y-61610000D02*
X113610000Y-64150000D01*
X113610000Y-66450000D02*
X113610000Y-76850000D01*
X113850000Y-59070000D02*
X115000000Y-60220000D01*
X112460000Y-65300000D02*
X113610000Y-66450000D01*
X113850000Y-53990000D02*
X113850000Y-59070000D01*
X153085000Y-120915000D02*
X149600000Y-124400000D01*
X138475000Y-52070000D02*
X134085000Y-56460000D01*
X112460000Y-52600000D02*
X113850000Y-53990000D01*
X153085000Y-37460000D02*
X153085000Y-56460000D01*
X115000000Y-60220000D02*
X113610000Y-61610000D01*
X153085000Y-56460000D02*
X151312500Y-54687500D01*
%TO.N,Net-(A1-GPIO3)*%
X119000000Y-41360000D02*
X119000000Y-70762000D01*
X119000000Y-70762000D02*
X121158000Y-72920000D01*
X115000000Y-37360000D02*
X119000000Y-41360000D01*
%TO.N,Net-(A1-GPIO8)*%
X117000000Y-73000000D02*
X120000000Y-76000000D01*
X120000000Y-81000000D02*
X121000000Y-82000000D01*
X121000000Y-82000000D02*
X132000000Y-82000000D01*
X120000000Y-76000000D02*
X120000000Y-81000000D01*
X117000000Y-46980000D02*
X117000000Y-73000000D01*
X115000000Y-44980000D02*
X117000000Y-46980000D01*
%TO.N,Net-(A1-GPIO1)*%
X121158000Y-34920000D02*
X121158000Y-35842000D01*
X121158000Y-34920000D02*
X119668000Y-33430000D01*
X119668000Y-33430000D02*
X113610000Y-33430000D01*
X113610000Y-33430000D02*
X112460000Y-32280000D01*
%TO.N,Net-(A1-GPIO6)*%
X111983654Y-31130000D02*
X136368000Y-31130000D01*
X114523654Y-38510000D02*
X113850000Y-37836346D01*
X117257157Y-41384924D02*
X117257157Y-40182843D01*
X136368000Y-31130000D02*
X140158000Y-34920000D01*
X115000000Y-42440000D02*
X116202081Y-42440000D01*
X111983654Y-35970000D02*
X111310000Y-35296346D01*
X116202081Y-42440000D02*
X117257157Y-41384924D01*
X117257157Y-40182843D02*
X115584314Y-38510000D01*
X111310000Y-35296346D02*
X111310000Y-31803654D01*
X111310000Y-31803654D02*
X111983654Y-31130000D01*
X113850000Y-36883654D02*
X112936346Y-35970000D01*
X112936346Y-35970000D02*
X111983654Y-35970000D01*
X113850000Y-37836346D02*
X113850000Y-36883654D01*
X115584314Y-38510000D02*
X114523654Y-38510000D01*
%TO.N,VDD*%
X111300000Y-94200000D02*
X114750000Y-90750000D01*
X111300000Y-121100000D02*
X111300000Y-94200000D01*
%TO.N,Net-(D1-DIN)*%
X115000000Y-110910000D02*
X115000000Y-119900000D01*
X115000000Y-119900000D02*
X116200000Y-121100000D01*
%TO.N,Net-(A1-GPIO9)*%
X140158000Y-91920000D02*
X135238000Y-87000000D01*
X135238000Y-87000000D02*
X112000000Y-87000000D01*
X112000000Y-87000000D02*
X109000000Y-84000000D01*
X109000000Y-84000000D02*
X109000000Y-48440000D01*
X109000000Y-48440000D02*
X112460000Y-44980000D01*
%TD*%
M02*
