%TF.GenerationSoftware,KiCad,Pcbnew,10.0.0*%
%TF.CreationDate,2026-07-21T16:33:13-05:00*%
%TF.ProjectId,10KeyMacropad,31304b65-794d-4616-9372-6f7061642e6b,rev?*%
%TF.SameCoordinates,Original*%
%TF.FileFunction,Legend,Bot*%
%TF.FilePolarity,Positive*%
%FSLAX46Y46*%
G04 Gerber Fmt 4.6, Leading zero omitted, Abs format (unit mm)*
G04 Created by KiCad (PCBNEW 10.0.0) date 2026-07-21 16:33:13*
%MOMM*%
%LPD*%
G01*
G04 APERTURE LIST*
%ADD10C,0.150000*%
%ADD11C,0.120000*%
G04 APERTURE END LIST*
D10*
X114444285Y-30069104D02*
X113968095Y-30069104D01*
X114539523Y-30354819D02*
X114206190Y-29354819D01*
X114206190Y-29354819D02*
X113872857Y-30354819D01*
X113015714Y-30354819D02*
X113587142Y-30354819D01*
X113301428Y-30354819D02*
X113301428Y-29354819D01*
X113301428Y-29354819D02*
X113396666Y-29497676D01*
X113396666Y-29497676D02*
X113491904Y-29592914D01*
X113491904Y-29592914D02*
X113587142Y-29640533D01*
X113916666Y-87359580D02*
X113964285Y-87407200D01*
X113964285Y-87407200D02*
X114107142Y-87454819D01*
X114107142Y-87454819D02*
X114202380Y-87454819D01*
X114202380Y-87454819D02*
X114345237Y-87407200D01*
X114345237Y-87407200D02*
X114440475Y-87311961D01*
X114440475Y-87311961D02*
X114488094Y-87216723D01*
X114488094Y-87216723D02*
X114535713Y-87026247D01*
X114535713Y-87026247D02*
X114535713Y-86883390D01*
X114535713Y-86883390D02*
X114488094Y-86692914D01*
X114488094Y-86692914D02*
X114440475Y-86597676D01*
X114440475Y-86597676D02*
X114345237Y-86502438D01*
X114345237Y-86502438D02*
X114202380Y-86454819D01*
X114202380Y-86454819D02*
X114107142Y-86454819D01*
X114107142Y-86454819D02*
X113964285Y-86502438D01*
X113964285Y-86502438D02*
X113916666Y-86550057D01*
X112964285Y-87454819D02*
X113535713Y-87454819D01*
X113249999Y-87454819D02*
X113249999Y-86454819D01*
X113249999Y-86454819D02*
X113345237Y-86597676D01*
X113345237Y-86597676D02*
X113440475Y-86692914D01*
X113440475Y-86692914D02*
X113535713Y-86740533D01*
X113084819Y-105663333D02*
X112608628Y-105330000D01*
X113084819Y-105091905D02*
X112084819Y-105091905D01*
X112084819Y-105091905D02*
X112084819Y-105472857D01*
X112084819Y-105472857D02*
X112132438Y-105568095D01*
X112132438Y-105568095D02*
X112180057Y-105615714D01*
X112180057Y-105615714D02*
X112275295Y-105663333D01*
X112275295Y-105663333D02*
X112418152Y-105663333D01*
X112418152Y-105663333D02*
X112513390Y-105615714D01*
X112513390Y-105615714D02*
X112561009Y-105568095D01*
X112561009Y-105568095D02*
X112608628Y-105472857D01*
X112608628Y-105472857D02*
X112608628Y-105091905D01*
X113084819Y-106615714D02*
X113084819Y-106044286D01*
X113084819Y-106330000D02*
X112084819Y-106330000D01*
X112084819Y-106330000D02*
X112227676Y-106234762D01*
X112227676Y-106234762D02*
X112322914Y-106139524D01*
X112322914Y-106139524D02*
X112370533Y-106044286D01*
%TO.C,A1*%
D11*
X111080000Y-30900000D02*
X111080000Y-81920000D01*
X113730000Y-30900000D02*
X111080000Y-30900000D01*
X113730000Y-33550000D02*
X113730000Y-30900000D01*
X116380000Y-30900000D02*
X115000000Y-30900000D01*
X116380000Y-32280000D02*
X116380000Y-30900000D01*
X116380000Y-33550000D02*
X113730000Y-33550000D01*
X116380000Y-33550000D02*
X116380000Y-81920000D01*
X116380000Y-81920000D02*
X111080000Y-81920000D01*
%TO.C,C1*%
X111150000Y-90467000D02*
X111150000Y-91033000D01*
X111190000Y-90233000D02*
X111190000Y-91267000D01*
X111230000Y-90073000D02*
X111230000Y-91427000D01*
X111270000Y-89945000D02*
X111270000Y-91555000D01*
X111310000Y-89836000D02*
X111310000Y-91664000D01*
X111350000Y-89739000D02*
X111350000Y-91761000D01*
X111390000Y-89652000D02*
X111390000Y-91848000D01*
X111430000Y-89573000D02*
X111430000Y-91927000D01*
X111470000Y-89499000D02*
X111470000Y-92001000D01*
X111510000Y-89431000D02*
X111510000Y-92069000D01*
X111550000Y-89367000D02*
X111550000Y-92133000D01*
X111590000Y-89307000D02*
X111590000Y-92193000D01*
X111630000Y-89251000D02*
X111630000Y-92249000D01*
X111670000Y-89197000D02*
X111670000Y-92303000D01*
X111710000Y-89146000D02*
X111710000Y-92354000D01*
X111750000Y-89098000D02*
X111750000Y-89710000D01*
X111750000Y-91790000D02*
X111750000Y-92402000D01*
X111790000Y-89051000D02*
X111790000Y-89710000D01*
X111790000Y-91790000D02*
X111790000Y-92449000D01*
X111830000Y-89007000D02*
X111830000Y-89710000D01*
X111830000Y-91790000D02*
X111830000Y-92493000D01*
X111870000Y-88965000D02*
X111870000Y-89710000D01*
X111870000Y-91790000D02*
X111870000Y-92535000D01*
X111910000Y-88925000D02*
X111910000Y-89710000D01*
X111910000Y-91790000D02*
X111910000Y-92575000D01*
X111950000Y-88886000D02*
X111950000Y-89710000D01*
X111950000Y-91790000D02*
X111950000Y-92614000D01*
X111990000Y-88849000D02*
X111990000Y-89710000D01*
X111990000Y-91790000D02*
X111990000Y-92651000D01*
X112030000Y-88814000D02*
X112030000Y-89710000D01*
X112030000Y-91790000D02*
X112030000Y-92686000D01*
X112070000Y-88780000D02*
X112070000Y-89710000D01*
X112070000Y-91790000D02*
X112070000Y-92720000D01*
X112110000Y-88747000D02*
X112110000Y-89710000D01*
X112110000Y-91790000D02*
X112110000Y-92753000D01*
X112150000Y-88715000D02*
X112150000Y-89710000D01*
X112150000Y-91790000D02*
X112150000Y-92785000D01*
X112190000Y-88685000D02*
X112190000Y-89710000D01*
X112190000Y-91790000D02*
X112190000Y-92815000D01*
X112230000Y-88656000D02*
X112230000Y-89710000D01*
X112230000Y-91790000D02*
X112230000Y-92844000D01*
X112270000Y-88628000D02*
X112270000Y-89710000D01*
X112270000Y-91790000D02*
X112270000Y-92872000D01*
X112310000Y-88601000D02*
X112310000Y-89710000D01*
X112310000Y-91790000D02*
X112310000Y-92899000D01*
X112350000Y-88575000D02*
X112350000Y-89710000D01*
X112350000Y-91790000D02*
X112350000Y-92925000D01*
X112390000Y-88551000D02*
X112390000Y-89710000D01*
X112390000Y-91790000D02*
X112390000Y-92949000D01*
X112430000Y-88527000D02*
X112430000Y-89710000D01*
X112430000Y-91790000D02*
X112430000Y-92973000D01*
X112470000Y-88504000D02*
X112470000Y-89710000D01*
X112470000Y-91790000D02*
X112470000Y-92996000D01*
X112510000Y-88482000D02*
X112510000Y-89710000D01*
X112510000Y-91790000D02*
X112510000Y-93018000D01*
X112550000Y-88461000D02*
X112550000Y-89710000D01*
X112550000Y-91790000D02*
X112550000Y-93039000D01*
X112590000Y-88441000D02*
X112590000Y-89710000D01*
X112590000Y-91790000D02*
X112590000Y-93059000D01*
X112630000Y-88421000D02*
X112630000Y-89710000D01*
X112630000Y-91790000D02*
X112630000Y-93079000D01*
X112670000Y-88403000D02*
X112670000Y-89710000D01*
X112670000Y-91790000D02*
X112670000Y-93097000D01*
X112710000Y-88385000D02*
X112710000Y-89710000D01*
X112710000Y-91790000D02*
X112710000Y-93115000D01*
X112750000Y-88368000D02*
X112750000Y-89710000D01*
X112750000Y-91790000D02*
X112750000Y-93132000D01*
X112790000Y-88352000D02*
X112790000Y-89710000D01*
X112790000Y-91790000D02*
X112790000Y-93148000D01*
X112830000Y-88337000D02*
X112830000Y-89710000D01*
X112830000Y-91790000D02*
X112830000Y-93163000D01*
X112870000Y-88322000D02*
X112870000Y-89710000D01*
X112870000Y-91790000D02*
X112870000Y-93178000D01*
X112910000Y-88308000D02*
X112910000Y-89710000D01*
X112910000Y-91790000D02*
X112910000Y-93192000D01*
X112950000Y-88295000D02*
X112950000Y-89710000D01*
X112950000Y-91790000D02*
X112950000Y-93205000D01*
X112990000Y-88283000D02*
X112990000Y-89710000D01*
X112990000Y-91790000D02*
X112990000Y-93217000D01*
X113030000Y-88271000D02*
X113030000Y-89710000D01*
X113030000Y-91790000D02*
X113030000Y-93229000D01*
X113070000Y-88260000D02*
X113070000Y-89710000D01*
X113070000Y-91790000D02*
X113070000Y-93240000D01*
X113110000Y-88249000D02*
X113110000Y-89710000D01*
X113110000Y-91790000D02*
X113110000Y-93251000D01*
X113150000Y-88240000D02*
X113150000Y-89710000D01*
X113150000Y-91790000D02*
X113150000Y-93260000D01*
X113190000Y-88231000D02*
X113190000Y-89710000D01*
X113190000Y-91790000D02*
X113190000Y-93269000D01*
X113230000Y-88222000D02*
X113230000Y-89710000D01*
X113230000Y-91790000D02*
X113230000Y-93278000D01*
X113270000Y-88214000D02*
X113270000Y-89710000D01*
X113270000Y-91790000D02*
X113270000Y-93286000D01*
X113310000Y-88207000D02*
X113310000Y-89710000D01*
X113310000Y-91790000D02*
X113310000Y-93293000D01*
X113350000Y-88201000D02*
X113350000Y-89710000D01*
X113350000Y-91790000D02*
X113350000Y-93299000D01*
X113390000Y-88195000D02*
X113390000Y-89710000D01*
X113390000Y-91790000D02*
X113390000Y-93305000D01*
X113430000Y-88190000D02*
X113430000Y-89710000D01*
X113430000Y-91790000D02*
X113430000Y-93310000D01*
X113470000Y-88185000D02*
X113470000Y-89710000D01*
X113470000Y-91790000D02*
X113470000Y-93315000D01*
X113510000Y-88181000D02*
X113510000Y-89710000D01*
X113510000Y-91790000D02*
X113510000Y-93319000D01*
X113550000Y-88178000D02*
X113550000Y-89710000D01*
X113550000Y-91790000D02*
X113550000Y-93322000D01*
X113590000Y-88175000D02*
X113590000Y-89710000D01*
X113590000Y-91790000D02*
X113590000Y-93325000D01*
X113630000Y-88173000D02*
X113630000Y-89710000D01*
X113630000Y-91790000D02*
X113630000Y-93327000D01*
X113670000Y-88171000D02*
X113670000Y-89710000D01*
X113670000Y-91790000D02*
X113670000Y-93329000D01*
X113710000Y-88170000D02*
X113710000Y-89710000D01*
X113710000Y-91790000D02*
X113710000Y-93330000D01*
X113750000Y-88170000D02*
X113750000Y-89710000D01*
X113750000Y-91790000D02*
X113750000Y-93330000D01*
X116304775Y-89025000D02*
X116304775Y-89525000D01*
X116554775Y-89275000D02*
X116054775Y-89275000D01*
X116370000Y-90750000D02*
G75*
G02*
X111130000Y-90750000I-2620000J0D01*
G01*
X111130000Y-90750000D02*
G75*
G02*
X116370000Y-90750000I2620000J0D01*
G01*
%TO.C,R1*%
X115000000Y-101790000D02*
X115000000Y-102560000D01*
X115000000Y-109870000D02*
X115000000Y-109100000D01*
X113630000Y-102560000D02*
X116370000Y-102560000D01*
X116370000Y-109100000D01*
X113630000Y-109100000D01*
X113630000Y-102560000D01*
%TD*%
M02*
