%TF.GenerationSoftware,KiCad,Pcbnew,10.0.0*%
%TF.CreationDate,2026-07-21T15:54:17-05:00*%
%TF.ProjectId,10KeyMacropad,31304b65-794d-4616-9372-6f7061642e6b,rev?*%
%TF.SameCoordinates,Original*%
%TF.FileFunction,Soldermask,Bot*%
%TF.FilePolarity,Negative*%
%FSLAX46Y46*%
G04 Gerber Fmt 4.6, Leading zero omitted, Abs format (unit mm)*
G04 Created by KiCad (PCBNEW 10.0.0) date 2026-07-21 15:54:17*
%MOMM*%
%LPD*%
G01*
G04 APERTURE LIST*
G04 Aperture macros list*
%AMRoundRect*
0 Rectangle with rounded corners*
0 $1 Rounding radius*
0 $2 $3 $4 $5 $6 $7 $8 $9 X,Y pos of 4 corners*
0 Add a 4 corners polygon primitive as box body*
4,1,4,$2,$3,$4,$5,$6,$7,$8,$9,$2,$3,0*
0 Add four circle primitives for the rounded corners*
1,1,$1+$1,$2,$3*
1,1,$1+$1,$4,$5*
1,1,$1+$1,$6,$7*
1,1,$1+$1,$8,$9*
0 Add four rect primitives between the rounded corners*
20,1,$1+$1,$2,$3,$4,$5,0*
20,1,$1+$1,$4,$5,$6,$7,0*
20,1,$1+$1,$6,$7,$8,$9,0*
20,1,$1+$1,$8,$9,$2,$3,0*%
G04 Aperture macros list end*
%ADD10C,1.701800*%
%ADD11C,3.000000*%
%ADD12C,3.987800*%
%ADD13C,3.200000*%
%ADD14R,1.700000X1.700000*%
%ADD15C,1.700000*%
%ADD16RoundRect,0.250000X0.550000X0.550000X-0.550000X0.550000X-0.550000X-0.550000X0.550000X-0.550000X0*%
%ADD17C,1.600000*%
G04 APERTURE END LIST*
D10*
%TO.C,SW6*%
X140920000Y-40000000D03*
D11*
X143460000Y-34920000D03*
D12*
X146000000Y-40000000D03*
D11*
X149810000Y-37460000D03*
D10*
X151080000Y-40000000D03*
%TD*%
%TO.C,SW3*%
X121920000Y-78000000D03*
D11*
X124460000Y-72920000D03*
D12*
X127000000Y-78000000D03*
D11*
X130810000Y-75460000D03*
D10*
X132080000Y-78000000D03*
%TD*%
D13*
%TO.C,H1*%
X159000000Y-34000000D03*
%TD*%
D10*
%TO.C,SW1*%
X121920000Y-40000000D03*
D11*
X124460000Y-34920000D03*
D12*
X127000000Y-40000000D03*
D11*
X130810000Y-37460000D03*
D10*
X132080000Y-40000000D03*
%TD*%
D13*
%TO.C,H4*%
X159000000Y-122500000D03*
%TD*%
D10*
%TO.C,SW9*%
X140920000Y-97000000D03*
D11*
X143460000Y-91920000D03*
D12*
X146000000Y-97000000D03*
D11*
X149810000Y-94460000D03*
D10*
X151080000Y-97000000D03*
%TD*%
%TO.C,SW7*%
X140920000Y-59000000D03*
D11*
X143460000Y-53920000D03*
D12*
X146000000Y-59000000D03*
D11*
X149810000Y-56460000D03*
D10*
X151080000Y-59000000D03*
%TD*%
D13*
%TO.C,H2*%
X106500000Y-34000000D03*
%TD*%
D10*
%TO.C,SW10*%
X140920000Y-116000000D03*
D11*
X143460000Y-110920000D03*
D12*
X146000000Y-116000000D03*
D11*
X149810000Y-113460000D03*
D10*
X151080000Y-116000000D03*
%TD*%
%TO.C,SW8*%
X140920000Y-78000000D03*
D11*
X143460000Y-72920000D03*
D12*
X146000000Y-78000000D03*
D11*
X149810000Y-75460000D03*
D10*
X151080000Y-78000000D03*
%TD*%
%TO.C,SW2*%
X121920000Y-59000000D03*
D11*
X124460000Y-53920000D03*
D12*
X127000000Y-59000000D03*
D11*
X130810000Y-56460000D03*
D10*
X132080000Y-59000000D03*
%TD*%
D13*
%TO.C,H3*%
X106500000Y-122500000D03*
%TD*%
D10*
%TO.C,SW5*%
X121920000Y-116000000D03*
D11*
X124460000Y-110920000D03*
D12*
X127000000Y-116000000D03*
D11*
X130810000Y-113460000D03*
D10*
X132080000Y-116000000D03*
%TD*%
%TO.C,SW4*%
X121920000Y-97000000D03*
D11*
X124460000Y-91920000D03*
D12*
X127000000Y-97000000D03*
D11*
X130810000Y-94460000D03*
D10*
X132080000Y-97000000D03*
%TD*%
D14*
%TO.C,A1*%
X115000000Y-32280000D03*
D15*
X112460000Y-32280000D03*
X115000000Y-34820000D03*
X112460000Y-34820000D03*
X115000000Y-37360000D03*
X112460000Y-37360000D03*
X115000000Y-39900000D03*
X112460000Y-39900000D03*
X115000000Y-42440000D03*
X112460000Y-42440000D03*
X115000000Y-44980000D03*
X112460000Y-44980000D03*
X115000000Y-47520000D03*
X112460000Y-47520000D03*
X115000000Y-50060000D03*
X112460000Y-50060000D03*
X115000000Y-52600000D03*
X112460000Y-52600000D03*
X115000000Y-55140000D03*
X112460000Y-55140000D03*
X115000000Y-57680000D03*
X112460000Y-57680000D03*
X115000000Y-60220000D03*
X112460000Y-60220000D03*
X115000000Y-62760000D03*
X112460000Y-62760000D03*
X115000000Y-65300000D03*
X112460000Y-65300000D03*
X115000000Y-67840000D03*
X112460000Y-67840000D03*
X115000000Y-70380000D03*
X112460000Y-70380000D03*
X115000000Y-72920000D03*
X112460000Y-72920000D03*
X115000000Y-75460000D03*
X112460000Y-75460000D03*
X115000000Y-78000000D03*
X112460000Y-78000000D03*
X115000000Y-80540000D03*
X112460000Y-80540000D03*
%TD*%
D16*
%TO.C,C1*%
X114750000Y-90750000D03*
D17*
X112750000Y-90750000D03*
%TD*%
%TO.C,R1*%
X115000000Y-100750000D03*
X115000000Y-110910000D03*
%TD*%
M02*
