%TF.GenerationSoftware,KiCad,Pcbnew,10.0.0*%
%TF.CreationDate,2026-07-21T15:54:17-05:00*%
%TF.ProjectId,10KeyMacropad,31304b65-794d-4616-9372-6f7061642e6b,rev?*%
%TF.SameCoordinates,Original*%
%TF.FileFunction,Legend,Top*%
%TF.FilePolarity,Positive*%
%FSLAX46Y46*%
G04 Gerber Fmt 4.6, Leading zero omitted, Abs format (unit mm)*
G04 Created by KiCad (PCBNEW 10.0.0) date 2026-07-21 15:54:17*
%MOMM*%
%LPD*%
G01*
G04 APERTURE LIST*
%ADD10C,0.150000*%
%ADD11C,0.120000*%
G04 APERTURE END LIST*
D10*
X113011905Y-119704819D02*
X113011905Y-118704819D01*
X113011905Y-118704819D02*
X113250000Y-118704819D01*
X113250000Y-118704819D02*
X113392857Y-118752438D01*
X113392857Y-118752438D02*
X113488095Y-118847676D01*
X113488095Y-118847676D02*
X113535714Y-118942914D01*
X113535714Y-118942914D02*
X113583333Y-119133390D01*
X113583333Y-119133390D02*
X113583333Y-119276247D01*
X113583333Y-119276247D02*
X113535714Y-119466723D01*
X113535714Y-119466723D02*
X113488095Y-119561961D01*
X113488095Y-119561961D02*
X113392857Y-119657200D01*
X113392857Y-119657200D02*
X113250000Y-119704819D01*
X113250000Y-119704819D02*
X113011905Y-119704819D01*
X114535714Y-119704819D02*
X113964286Y-119704819D01*
X114250000Y-119704819D02*
X114250000Y-118704819D01*
X114250000Y-118704819D02*
X114154762Y-118847676D01*
X114154762Y-118847676D02*
X114059524Y-118942914D01*
X114059524Y-118942914D02*
X113964286Y-118990533D01*
X111478571Y-119612295D02*
X111021428Y-119612295D01*
X111250000Y-119612295D02*
X111250000Y-118812295D01*
X111250000Y-118812295D02*
X111173809Y-118926580D01*
X111173809Y-118926580D02*
X111097619Y-119002771D01*
X111097619Y-119002771D02*
X111021428Y-119040866D01*
X158238095Y-30304819D02*
X158238095Y-29304819D01*
X158238095Y-29781009D02*
X158809523Y-29781009D01*
X158809523Y-30304819D02*
X158809523Y-29304819D01*
X159809523Y-30304819D02*
X159238095Y-30304819D01*
X159523809Y-30304819D02*
X159523809Y-29304819D01*
X159523809Y-29304819D02*
X159428571Y-29447676D01*
X159428571Y-29447676D02*
X159333333Y-29542914D01*
X159333333Y-29542914D02*
X159238095Y-29590533D01*
X158238095Y-118804819D02*
X158238095Y-117804819D01*
X158238095Y-118281009D02*
X158809523Y-118281009D01*
X158809523Y-118804819D02*
X158809523Y-117804819D01*
X159714285Y-118138152D02*
X159714285Y-118804819D01*
X159476190Y-117757200D02*
X159238095Y-118471485D01*
X159238095Y-118471485D02*
X159857142Y-118471485D01*
X105738095Y-30304819D02*
X105738095Y-29304819D01*
X105738095Y-29781009D02*
X106309523Y-29781009D01*
X106309523Y-30304819D02*
X106309523Y-29304819D01*
X106738095Y-29400057D02*
X106785714Y-29352438D01*
X106785714Y-29352438D02*
X106880952Y-29304819D01*
X106880952Y-29304819D02*
X107119047Y-29304819D01*
X107119047Y-29304819D02*
X107214285Y-29352438D01*
X107214285Y-29352438D02*
X107261904Y-29400057D01*
X107261904Y-29400057D02*
X107309523Y-29495295D01*
X107309523Y-29495295D02*
X107309523Y-29590533D01*
X107309523Y-29590533D02*
X107261904Y-29733390D01*
X107261904Y-29733390D02*
X106690476Y-30304819D01*
X106690476Y-30304819D02*
X107309523Y-30304819D01*
X105738095Y-118804819D02*
X105738095Y-117804819D01*
X105738095Y-118281009D02*
X106309523Y-118281009D01*
X106309523Y-118804819D02*
X106309523Y-117804819D01*
X106690476Y-117804819D02*
X107309523Y-117804819D01*
X107309523Y-117804819D02*
X106976190Y-118185771D01*
X106976190Y-118185771D02*
X107119047Y-118185771D01*
X107119047Y-118185771D02*
X107214285Y-118233390D01*
X107214285Y-118233390D02*
X107261904Y-118281009D01*
X107261904Y-118281009D02*
X107309523Y-118376247D01*
X107309523Y-118376247D02*
X107309523Y-118614342D01*
X107309523Y-118614342D02*
X107261904Y-118709580D01*
X107261904Y-118709580D02*
X107214285Y-118757200D01*
X107214285Y-118757200D02*
X107119047Y-118804819D01*
X107119047Y-118804819D02*
X106833333Y-118804819D01*
X106833333Y-118804819D02*
X106738095Y-118757200D01*
X106738095Y-118757200D02*
X106690476Y-118709580D01*
%TO.C,D1*%
D11*
X110250000Y-120000000D02*
X110250000Y-125500000D01*
X110250000Y-120000000D02*
X117250000Y-120000000D01*
X110250000Y-125500000D02*
X116800000Y-125500000D01*
X111050000Y-123650000D02*
X111050000Y-121850000D01*
X116450000Y-123650000D02*
X116450000Y-121850000D01*
X116800000Y-125500000D02*
X117250000Y-125050000D01*
X117250000Y-125050000D02*
X117250000Y-120000000D01*
%TD*%
M02*
